{
	"asset":{
		"generator":"Khronos glTF Blender I/O v4.2.57",
		"version":"2.0"
	},
	"scene":0,
	"scenes":[
		{
			"name":"Scene",
			"nodes":[
				0
			]
		}
	],
	"nodes":[
		{
			"mesh":0,
			"name":"jump_effect_in",
			"scale":[
				0.47113919258117676,
				0.47113919258117676,
				0.47113919258117676
			]
		}
	],
	"materials":[
		{
			"alphaMode":"BLEND",
			"emissiveFactor":[
				1,
				1,
				1
			],
			"name":"m_jump_effect_in1",
			"pbrMetallicRoughness":{
				"baseColorTexture":{
					"index":0
				},
				"metallicFactor":0
			}
		}
	],
	"meshes":[
		{
			"name":"Mesh_0.003",
			"primitives":[
				{
					"attributes":{
						"POSITION":0,
						"NORMAL":1,
						"TEXCOORD_0":2
					},
					"indices":3,
					"material":0
				}
			]
		}
	],
	"textures":[
		{
			"sampler":0,
			"source":0
		}
	],
	"images":[
		{
			"mimeType":"image/png",
			"name":"bom_effect_in",
			"uri":"bom_effect_in.png"
		}
	],
	"accessors":[
		{
			"bufferView":0,
			"componentType":5126,
			"count":720,
			"max":[
				2.574885129928589,
				0.006918945349752903,
				2.574885129928589
			],
			"min":[
				-2.574885606765747,
				0.006918639875948429,
				-2.5748860836029053
			],
			"type":"VEC3"
		},
		{
			"bufferView":1,
			"componentType":5126,
			"count":720,
			"type":"VEC3"
		},
		{
			"bufferView":2,
			"componentType":5126,
			"count":720,
			"type":"VEC2"
		},
		{
			"bufferView":3,
			"componentType":5123,
			"count":3840,
			"type":"SCALAR"
		}
	],
	"bufferViews":[
		{
			"buffer":0,
			"byteLength":8640,
			"byteOffset":0,
			"target":34962
		},
		{
			"buffer":0,
			"byteLength":8640,
			"byteOffset":8640,
			"target":34962
		},
		{
			"buffer":0,
			"byteLength":5760,
			"byteOffset":17280,
			"target":34962
		},
		{
			"buffer":0,
			"byteLength":7680,
			"byteOffset":23040,
			"target":34963
		}
	],
	"samplers":[
		{
			"magFilter":9729,
			"minFilter":9987
		}
	],
	"buffers":[
		{
			"byteLength":30720,
			"uri":"bom_effect_in.bin"
		}
	]
}
