{
	"asset":{
		"generator":"Khronos glTF Blender I/O v4.2.57",
		"version":"2.0"
	},
	"extensionsUsed":[
		"KHR_materials_transmission",
		"KHR_materials_ior"
	],
	"scene":0,
	"scenes":[
		{
			"name":"Scene",
			"nodes":[
				0,
				1,
				2,
				3,
				4
			]
		}
	],
	"nodes":[
		{
			"mesh":0,
			"name":"Plane",
			"scale":[
				7,
				5,
				5
			],
			"translation":[
				0.3134833574295044,
				0,
				0.63374263048172
			]
		},
		{
			"mesh":1,
			"name":"Cube",
			"translation":[
				0,
				0.05017423257231712,
				-2.8631656169891357
			]
		},
		{
			"mesh":2,
			"name":"Cube.001",
			"translation":[
				0,
				0.15052253007888794,
				-2.8631656169891357
			]
		},
		{
			"mesh":3,
			"name":"Cylinder.002",
			"rotation":[
				0,
				0,
				-0.9238795638084412,
				0.3826834559440613
			],
			"scale":[
				0.12418942898511887,
				0.12418942898511887,
				0.12418942898511887
			],
			"translation":[
				-1.1560841798782349,
				2.105130910873413,
				-4.217697620391846
			]
		},
		{
			"mesh":4,
			"name":"Cylinder.001",
			"rotation":[
				0,
				0,
				-0.9238795638084412,
				0.3826834559440613
			],
			"scale":[
				0.12418942898511887,
				0.12418942898511887,
				0.12418942898511887
			],
			"translation":[
				-2.329450845718384,
				2.105130910873413,
				-4.217697620391846
			]
		}
	],
	"materials":[
		{
			"doubleSided":true,
			"name":"Material",
			"pbrMetallicRoughness":{
				"baseColorFactor":[
					0.13013654947280884,
					0.09084168821573257,
					0.11697069555521011,
					1
				],
				"metallicFactor":0,
				"roughnessFactor":0.5
			}
		},
		{
			"doubleSided":true,
			"name":"Podium",
			"pbrMetallicRoughness":{
				"baseColorFactor":[
					0.3712378740310669,
					0.304987370967865,
					0.327778160572052,
					1
				],
				"metallicFactor":0,
				"roughnessFactor":0.5
			}
		},
		{
			"doubleSided":true,
			"name":"Spot",
			"pbrMetallicRoughness":{
				"baseColorFactor":[
					0.3712378740310669,
					0.304987370967865,
					0.327778160572052,
					1
				],
				"metallicFactor":0.6800000071525574,
				"roughnessFactor":0.5
			}
		},
		{
			"doubleSided":true,
			"extensions":{
				"KHR_materials_transmission":{
					"transmissionFactor":1
				},
				"KHR_materials_ior":{
					"ior":1.4500000476837158
				}
			},
			"name":"SpotLight",
			"pbrMetallicRoughness":{
				"metallicFactor":0,
				"roughnessFactor":0
			}
		}
	],
	"meshes":[
		{
			"name":"Plane",
			"primitives":[
				{
					"attributes":{
						"POSITION":0,
						"NORMAL":1,
						"TEXCOORD_0":2
					},
					"indices":3,
					"material":0
				}
			]
		},
		{
			"name":"Cube",
			"primitives":[
				{
					"attributes":{
						"POSITION":4,
						"NORMAL":5,
						"TEXCOORD_0":6
					},
					"indices":7,
					"material":1
				}
			]
		},
		{
			"name":"Cube.001",
			"primitives":[
				{
					"attributes":{
						"POSITION":8,
						"NORMAL":9,
						"TEXCOORD_0":10
					},
					"indices":7,
					"material":1
				}
			]
		},
		{
			"name":"Cylinder.002",
			"primitives":[
				{
					"attributes":{
						"POSITION":11,
						"NORMAL":12,
						"TEXCOORD_0":13
					},
					"indices":14,
					"material":2
				},
				{
					"attributes":{
						"POSITION":15,
						"NORMAL":16,
						"TEXCOORD_0":17
					},
					"indices":18,
					"material":3
				}
			]
		},
		{
			"name":"Cylinder.004",
			"primitives":[
				{
					"attributes":{
						"POSITION":19,
						"NORMAL":20,
						"TEXCOORD_0":21
					},
					"indices":22,
					"material":2
				},
				{
					"attributes":{
						"POSITION":23,
						"NORMAL":24,
						"TEXCOORD_0":25
					},
					"indices":18,
					"material":3
				}
			]
		}
	],
	"accessors":[
		{
			"bufferView":0,
			"componentType":5126,
			"count":8,
			"max":[
				1,
				0.800000011920929,
				1
			],
			"min":[
				-1,
				0,
				-1
			],
			"type":"VEC3"
		},
		{
			"bufferView":1,
			"componentType":5126,
			"count":8,
			"type":"VEC3"
		},
		{
			"bufferView":2,
			"componentType":5126,
			"count":8,
			"type":"VEC2"
		},
		{
			"bufferView":3,
			"componentType":5123,
			"count":12,
			"type":"SCALAR"
		},
		{
			"bufferView":4,
			"componentType":5126,
			"count":24,
			"max":[
				1.399999976158142,
				0.050174158066511154,
				1
			],
			"min":[
				-1.399999976158142,
				-0.050174158066511154,
				-1
			],
			"type":"VEC3"
		},
		{
			"bufferView":5,
			"componentType":5126,
			"count":24,
			"type":"VEC3"
		},
		{
			"bufferView":6,
			"componentType":5126,
			"count":24,
			"type":"VEC2"
		},
		{
			"bufferView":7,
			"componentType":5123,
			"count":36,
			"type":"SCALAR"
		},
		{
			"bufferView":8,
			"componentType":5126,
			"count":24,
			"max":[
				1.198828935623169,
				0.050174158066511154,
				0.8563063740730286
			],
			"min":[
				-1.198828935623169,
				-0.050174158066511154,
				-0.8563063740730286
			],
			"type":"VEC3"
		},
		{
			"bufferView":9,
			"componentType":5126,
			"count":24,
			"type":"VEC3"
		},
		{
			"bufferView":10,
			"componentType":5126,
			"count":24,
			"type":"VEC2"
		},
		{
			"bufferView":11,
			"componentType":5126,
			"count":2038,
			"max":[
				1.742899775505066,
				0.995488166809082,
				1.2315391302108765
			],
			"min":[
				-4.08674430847168,
				-4.6694416999816895,
				-1.2315374612808228
			],
			"type":"VEC3"
		},
		{
			"bufferView":12,
			"componentType":5126,
			"count":2038,
			"type":"VEC3"
		},
		{
			"bufferView":13,
			"componentType":5126,
			"count":2038,
			"type":"VEC2"
		},
		{
			"bufferView":14,
			"componentType":5123,
			"count":3906,
			"type":"SCALAR"
		},
		{
			"bufferView":15,
			"componentType":5126,
			"count":32,
			"max":[
				1.3799865245819092,
				0.8866945505142212,
				0.8526691794395447
			],
			"min":[
				-0.25353071093559265,
				0.39700010418891907,
				-0.8526691794395447
			],
			"type":"VEC3"
		},
		{
			"bufferView":16,
			"componentType":5126,
			"count":32,
			"type":"VEC3"
		},
		{
			"bufferView":17,
			"componentType":5126,
			"count":32,
			"type":"VEC2"
		},
		{
			"bufferView":18,
			"componentType":5123,
			"count":90,
			"type":"SCALAR"
		},
		{
			"bufferView":19,
			"componentType":5126,
			"count":2030,
			"max":[
				1.2315387725830078,
				1,
				1.231539249420166
			],
			"min":[
				-4.08674430847168,
				-4.6694416999816895,
				-1.2315375804901123
			],
			"type":"VEC3"
		},
		{
			"bufferView":20,
			"componentType":5126,
			"count":2030,
			"type":"VEC3"
		},
		{
			"bufferView":21,
			"componentType":5126,
			"count":2030,
			"type":"VEC2"
		},
		{
			"bufferView":22,
			"componentType":5123,
			"count":3906,
			"type":"SCALAR"
		},
		{
			"bufferView":23,
			"componentType":5126,
			"count":32,
			"max":[
				0.8526692390441895,
				1,
				0.8526692390441895
			],
			"min":[
				-0.8526692390441895,
				1,
				-0.8526692390441895
			],
			"type":"VEC3"
		},
		{
			"bufferView":24,
			"componentType":5126,
			"count":32,
			"type":"VEC3"
		},
		{
			"bufferView":25,
			"componentType":5126,
			"count":32,
			"type":"VEC2"
		}
	],
	"bufferViews":[
		{
			"buffer":0,
			"byteLength":96,
			"byteOffset":0,
			"target":34962
		},
		{
			"buffer":0,
			"byteLength":96,
			"byteOffset":96,
			"target":34962
		},
		{
			"buffer":0,
			"byteLength":64,
			"byteOffset":192,
			"target":34962
		},
		{
			"buffer":0,
			"byteLength":24,
			"byteOffset":256,
			"target":34963
		},
		{
			"buffer":0,
			"byteLength":288,
			"byteOffset":280,
			"target":34962
		},
		{
			"buffer":0,
			"byteLength":288,
			"byteOffset":568,
			"target":34962
		},
		{
			"buffer":0,
			"byteLength":192,
			"byteOffset":856,
			"target":34962
		},
		{
			"buffer":0,
			"byteLength":72,
			"byteOffset":1048,
			"target":34963
		},
		{
			"buffer":0,
			"byteLength":288,
			"byteOffset":1120,
			"target":34962
		},
		{
			"buffer":0,
			"byteLength":288,
			"byteOffset":1408,
			"target":34962
		},
		{
			"buffer":0,
			"byteLength":192,
			"byteOffset":1696,
			"target":34962
		},
		{
			"buffer":0,
			"byteLength":24456,
			"byteOffset":1888,
			"target":34962
		},
		{
			"buffer":0,
			"byteLength":24456,
			"byteOffset":26344,
			"target":34962
		},
		{
			"buffer":0,
			"byteLength":16304,
			"byteOffset":50800,
			"target":34962
		},
		{
			"buffer":0,
			"byteLength":7812,
			"byteOffset":67104,
			"target":34963
		},
		{
			"buffer":0,
			"byteLength":384,
			"byteOffset":74916,
			"target":34962
		},
		{
			"buffer":0,
			"byteLength":384,
			"byteOffset":75300,
			"target":34962
		},
		{
			"buffer":0,
			"byteLength":256,
			"byteOffset":75684,
			"target":34962
		},
		{
			"buffer":0,
			"byteLength":180,
			"byteOffset":75940,
			"target":34963
		},
		{
			"buffer":0,
			"byteLength":24360,
			"byteOffset":76120,
			"target":34962
		},
		{
			"buffer":0,
			"byteLength":24360,
			"byteOffset":100480,
			"target":34962
		},
		{
			"buffer":0,
			"byteLength":16240,
			"byteOffset":124840,
			"target":34962
		},
		{
			"buffer":0,
			"byteLength":7812,
			"byteOffset":141080,
			"target":34963
		},
		{
			"buffer":0,
			"byteLength":384,
			"byteOffset":148892,
			"target":34962
		},
		{
			"buffer":0,
			"byteLength":384,
			"byteOffset":149276,
			"target":34962
		},
		{
			"buffer":0,
			"byteLength":256,
			"byteOffset":149660,
			"target":34962
		}
	],
	"buffers":[
		{
			"byteLength":149916,
			"uri":"stydio_6.bin"
		}
	]
}
