{
	"asset":{
		"generator":"Khronos glTF Blender I/O v4.2.57",
		"version":"2.0"
	},
	"scene":0,
	"scenes":[
		{
			"name":"Scene",
			"nodes":[
				0
			]
		}
	],
	"nodes":[
		{
			"mesh":0,
			"name":"trash_can",
			"rotation":[
				0.7071068286895752,
				0,
				0,
				0.7071068286895752
			],
			"scale":[
				0.009999999776482582,
				0.009999999776482582,
				0.009999999776482582
			]
		}
	],
	"materials":[
		{
			"doubleSided":true,
			"name":"standardSurface1",
			"pbrMetallicRoughness":{
				"metallicFactor":0,
				"roughnessFactor":0.5527864098548889
			}
		}
	],
	"meshes":[
		{
			"name":"Mesh",
			"primitives":[
				{
					"attributes":{
						"POSITION":0,
						"NORMAL":1,
						"TEXCOORD_0":2,
						"COLOR_0":3,
						"COLOR_1":4,
						"COLOR_2":5
					},
					"indices":6,
					"material":0
				}
			]
		}
	],
	"accessors":[
		{
			"bufferView":0,
			"componentType":5126,
			"count":2782,
			"max":[
				19.995134353637695,
				20.839025497436523,
				-0.6262040138244629
			],
			"min":[
				-20.202455520629883,
				-20.839025497436523,
				-84.0975570678711
			],
			"type":"VEC3"
		},
		{
			"bufferView":1,
			"componentType":5126,
			"count":2782,
			"type":"VEC3"
		},
		{
			"bufferView":2,
			"componentType":5126,
			"count":2782,
			"type":"VEC2"
		},
		{
			"bufferView":3,
			"componentType":5121,
			"count":2782,
			"normalized":true,
			"type":"VEC4"
		},
		{
			"bufferView":4,
			"componentType":5126,
			"count":2782,
			"type":"VEC3"
		},
		{
			"bufferView":5,
			"componentType":5126,
			"count":2782,
			"type":"VEC3"
		},
		{
			"bufferView":6,
			"componentType":5123,
			"count":9264,
			"type":"SCALAR"
		}
	],
	"bufferViews":[
		{
			"buffer":0,
			"byteLength":33384,
			"byteOffset":0,
			"target":34962
		},
		{
			"buffer":0,
			"byteLength":33384,
			"byteOffset":33384,
			"target":34962
		},
		{
			"buffer":0,
			"byteLength":22256,
			"byteOffset":66768,
			"target":34962
		},
		{
			"buffer":0,
			"byteLength":11128,
			"byteOffset":89024,
			"target":34962
		},
		{
			"buffer":0,
			"byteLength":33384,
			"byteOffset":100152,
			"target":34962
		},
		{
			"buffer":0,
			"byteLength":33384,
			"byteOffset":133536,
			"target":34962
		},
		{
			"buffer":0,
			"byteLength":18528,
			"byteOffset":166920,
			"target":34963
		}
	],
	"buffers":[
		{
			"byteLength":185448,
			"uri":"trash_can.bin"
		}
	]
}
