{
	"asset":{
		"generator":"Khronos glTF Blender I/O v3.6.28",
		"version":"2.0"
	},
	"scene":0,
	"scenes":[
		{
			"name":"Scene",
			"nodes":[
				0,
				1,
				2,
				3,
				4,
				5,
				6,
				7,
				8
			]
		}
	],
	"nodes":[
		{
			"mesh":0,
			"name":"bomb_bill_cell",
			"translation":[
				-0.2823028266429901,
				0.6714690327644348,
				-0.5946297645568848
			]
		},
		{
			"mesh":1,
			"name":"bomb_bill_cell.001",
			"translation":[
				-0.20640191435813904,
				1.3000209331512451,
				-0.7298241257667542
			]
		},
		{
			"mesh":2,
			"name":"bomb_bill_cell.003",
			"translation":[
				0.6136274933815002,
				2.310159683227539,
				-0.7827735543251038
			]
		},
		{
			"mesh":3,
			"name":"bomb_bill_cell.004",
			"translation":[
				-0.5216240882873535,
				2.9806511402130127,
				-0.6952799558639526
			]
		},
		{
			"mesh":4,
			"name":"bomb_bill_cell.007",
			"translation":[
				0.5129712820053101,
				1.182828426361084,
				-0.7088924050331116
			]
		},
		{
			"mesh":5,
			"name":"bomb_bill_cell.008",
			"translation":[
				0.6275209188461304,
				0.5401464700698853,
				-0.167909637093544
			]
		},
		{
			"mesh":6,
			"name":"bomb_bill_cell.009",
			"translation":[
				-0.08932752907276154,
				2.806896924972534,
				0.05163823813199997
			]
		},
		{
			"mesh":7,
			"name":"bomb_bill_cell.017",
			"translation":[
				0.042167261242866516,
				2.4574246406555176,
				-0.7358478307723999
			]
		},
		{
			"mesh":8,
			"name":"bomb_bill_cell.018",
			"translation":[
				0.7992120981216431,
				3.4892024993896484,
				-0.27670109272003174
			]
		}
	],
	"materials":[
		{
			"name":"L_bomb_bill",
			"pbrMetallicRoughness":{
				"baseColorFactor":[
					0.800000011920929,
					0.800000011920929,
					0.800000011920929,
					1
				],
				"baseColorTexture":{
					"index":0
				},
				"metallicFactor":0
			}
		}
	],
	"meshes":[
		{
			"name":"bomb_bill_cell.020",
			"primitives":[
				{
					"attributes":{
						"POSITION":0,
						"NORMAL":1,
						"TEXCOORD_0":2
					},
					"indices":3,
					"material":0
				}
			]
		},
		{
			"name":"bomb_bill_cell.021",
			"primitives":[
				{
					"attributes":{
						"POSITION":4,
						"NORMAL":5,
						"TEXCOORD_0":6
					},
					"indices":7,
					"material":0
				}
			]
		},
		{
			"name":"bomb_bill_cell.002",
			"primitives":[
				{
					"attributes":{
						"POSITION":8,
						"NORMAL":9,
						"TEXCOORD_0":10
					},
					"indices":11,
					"material":0
				}
			]
		},
		{
			"name":"bomb_bill_cell.003",
			"primitives":[
				{
					"attributes":{
						"POSITION":12,
						"NORMAL":13,
						"TEXCOORD_0":14
					},
					"indices":15,
					"material":0
				}
			]
		},
		{
			"name":"bomb_bill_cell.006",
			"primitives":[
				{
					"attributes":{
						"POSITION":16,
						"NORMAL":17,
						"TEXCOORD_0":18
					},
					"indices":19,
					"material":0
				}
			]
		},
		{
			"name":"bomb_bill_cell.007",
			"primitives":[
				{
					"attributes":{
						"POSITION":20,
						"NORMAL":21,
						"TEXCOORD_0":22
					},
					"indices":23,
					"material":0
				}
			]
		},
		{
			"name":"bomb_bill_cell.008",
			"primitives":[
				{
					"attributes":{
						"POSITION":24,
						"NORMAL":25,
						"TEXCOORD_0":26
					},
					"indices":27,
					"material":0
				}
			]
		},
		{
			"name":"bomb_bill_cell.016",
			"primitives":[
				{
					"attributes":{
						"POSITION":28,
						"NORMAL":29,
						"TEXCOORD_0":30
					},
					"indices":31,
					"material":0
				}
			]
		},
		{
			"name":"bomb_bill_cell.017",
			"primitives":[
				{
					"attributes":{
						"POSITION":32,
						"NORMAL":33,
						"TEXCOORD_0":34
					},
					"indices":35,
					"material":0
				}
			]
		}
	],
	"textures":[
		{
			"sampler":0,
			"source":0
		}
	],
	"images":[
		{
			"bufferView":4,
			"mimeType":"image/png",
			"name":"bomb_bill_tex"
		}
	],
	"accessors":[
		{
			"bufferView":0,
			"componentType":5126,
			"count":126,
			"max":[
				0.8720651865005493,
				0.5027706623077393,
				0.9627959132194519
			],
			"min":[
				-0.5458403825759888,
				-0.6714691519737244,
				-0.33626264333724976
			],
			"type":"VEC3"
		},
		{
			"bufferView":1,
			"componentType":5126,
			"count":126,
			"type":"VEC3"
		},
		{
			"bufferView":2,
			"componentType":5126,
			"count":126,
			"type":"VEC2"
		},
		{
			"bufferView":3,
			"componentType":5123,
			"count":222,
			"type":"SCALAR"
		},
		{
			"bufferView":5,
			"componentType":5126,
			"count":240,
			"max":[
				0.803649365901947,
				0.7559173703193665,
				0.7895029783248901
			],
			"min":[
				-0.6217412352561951,
				-0.4604234993457794,
				-0.20106828212738037
			],
			"type":"VEC3"
		},
		{
			"bufferView":6,
			"componentType":5126,
			"count":240,
			"type":"VEC3"
		},
		{
			"bufferView":7,
			"componentType":5126,
			"count":240,
			"type":"VEC2"
		},
		{
			"bufferView":8,
			"componentType":5123,
			"count":444,
			"type":"SCALAR"
		},
		{
			"bufferView":9,
			"componentType":5126,
			"count":80,
			"max":[
				0.21451565623283386,
				0.53996741771698,
				0.439142644405365
			],
			"min":[
				-0.2635750472545624,
				-0.3257577121257782,
				-0.14811885356903076
			],
			"type":"VEC3"
		},
		{
			"bufferView":10,
			"componentType":5126,
			"count":80,
			"type":"VEC3"
		},
		{
			"bufferView":11,
			"componentType":5126,
			"count":80,
			"type":"VEC2"
		},
		{
			"bufferView":12,
			"componentType":5123,
			"count":144,
			"type":"SCALAR"
		},
		{
			"bufferView":13,
			"componentType":5126,
			"count":74,
			"max":[
				0.45299193263053894,
				0.5964041948318481,
				0.9385772943496704
			],
			"min":[
				-0.3065190613269806,
				-0.580048680305481,
				-0.23561245203018188
			],
			"type":"VEC3"
		},
		{
			"bufferView":14,
			"componentType":5126,
			"count":74,
			"type":"VEC3"
		},
		{
			"bufferView":15,
			"componentType":5126,
			"count":74,
			"type":"VEC2"
		},
		{
			"bufferView":16,
			"componentType":5123,
			"count":132,
			"type":"SCALAR"
		},
		{
			"bufferView":17,
			"componentType":5126,
			"count":148,
			"max":[
				0.3151719272136688,
				0.5498729944229126,
				0.7164973616600037
			],
			"min":[
				-0.25937172770500183,
				-0.6906766295433044,
				-0.22199998795986176
			],
			"type":"VEC3"
		},
		{
			"bufferView":18,
			"componentType":5126,
			"count":148,
			"type":"VEC3"
		},
		{
			"bufferView":19,
			"componentType":5126,
			"count":148,
			"type":"VEC2"
		},
		{
			"bufferView":20,
			"componentType":5123,
			"count":276,
			"type":"SCALAR"
		},
		{
			"bufferView":21,
			"componentType":5126,
			"count":80,
			"max":[
				0.20062226057052612,
				0.5849523544311523,
				0.6866100430488586
			],
			"min":[
				-0.47349226474761963,
				-0.5401465892791748,
				-0.7629827857017517
			],
			"type":"VEC3"
		},
		{
			"bufferView":22,
			"componentType":5126,
			"count":80,
			"type":"VEC3"
		},
		{
			"bufferView":23,
			"componentType":5126,
			"count":80,
			"type":"VEC2"
		},
		{
			"bufferView":24,
			"componentType":5123,
			"count":120,
			"type":"SCALAR"
		},
		{
			"bufferView":25,
			"componentType":5126,
			"count":90,
			"max":[
				0.9174707531929016,
				0.7701585292816162,
				0.776503324508667
			],
			"min":[
				-0.7388156056404114,
				-0.7823399901390076,
				-0.5381436347961426
			],
			"type":"VEC3"
		},
		{
			"bufferView":26,
			"componentType":5126,
			"count":90,
			"type":"VEC3"
		},
		{
			"bufferView":27,
			"componentType":5126,
			"count":90,
			"type":"VEC2"
		},
		{
			"bufferView":28,
			"componentType":5123,
			"count":150,
			"type":"SCALAR"
		},
		{
			"bufferView":29,
			"componentType":5126,
			"count":164,
			"max":[
				0.7859759330749512,
				0.7115834951400757,
				0.7401083707809448
			],
			"min":[
				-0.6118711233139038,
				-0.4455154240131378,
				-0.09229375422000885
			],
			"type":"VEC3"
		},
		{
			"bufferView":30,
			"componentType":5126,
			"count":164,
			"type":"VEC3"
		},
		{
			"bufferView":31,
			"componentType":5126,
			"count":164,
			"type":"VEC2"
		},
		{
			"bufferView":32,
			"componentType":5123,
			"count":300,
			"type":"SCALAR"
		},
		{
			"bufferView":33,
			"componentType":5126,
			"count":24,
			"max":[
				0.028931081295013428,
				0.0878530740737915,
				0.4693256616592407
			],
			"min":[
				-0.0690186619758606,
				-0.19425947964191437,
				-0.6400944590568542
			],
			"type":"VEC3"
		},
		{
			"bufferView":34,
			"componentType":5126,
			"count":24,
			"type":"VEC3"
		},
		{
			"bufferView":35,
			"componentType":5126,
			"count":24,
			"type":"VEC2"
		},
		{
			"bufferView":36,
			"componentType":5123,
			"count":36,
			"type":"SCALAR"
		}
	],
	"bufferViews":[
		{
			"buffer":0,
			"byteLength":1512,
			"byteOffset":0,
			"target":34962
		},
		{
			"buffer":0,
			"byteLength":1512,
			"byteOffset":1512,
			"target":34962
		},
		{
			"buffer":0,
			"byteLength":1008,
			"byteOffset":3024,
			"target":34962
		},
		{
			"buffer":0,
			"byteLength":444,
			"byteOffset":4032,
			"target":34963
		},
		{
			"buffer":0,
			"byteLength":56687,
			"byteOffset":4476
		},
		{
			"buffer":0,
			"byteLength":2880,
			"byteOffset":61164,
			"target":34962
		},
		{
			"buffer":0,
			"byteLength":2880,
			"byteOffset":64044,
			"target":34962
		},
		{
			"buffer":0,
			"byteLength":1920,
			"byteOffset":66924,
			"target":34962
		},
		{
			"buffer":0,
			"byteLength":888,
			"byteOffset":68844,
			"target":34963
		},
		{
			"buffer":0,
			"byteLength":960,
			"byteOffset":69732,
			"target":34962
		},
		{
			"buffer":0,
			"byteLength":960,
			"byteOffset":70692,
			"target":34962
		},
		{
			"buffer":0,
			"byteLength":640,
			"byteOffset":71652,
			"target":34962
		},
		{
			"buffer":0,
			"byteLength":288,
			"byteOffset":72292,
			"target":34963
		},
		{
			"buffer":0,
			"byteLength":888,
			"byteOffset":72580,
			"target":34962
		},
		{
			"buffer":0,
			"byteLength":888,
			"byteOffset":73468,
			"target":34962
		},
		{
			"buffer":0,
			"byteLength":592,
			"byteOffset":74356,
			"target":34962
		},
		{
			"buffer":0,
			"byteLength":264,
			"byteOffset":74948,
			"target":34963
		},
		{
			"buffer":0,
			"byteLength":1776,
			"byteOffset":75212,
			"target":34962
		},
		{
			"buffer":0,
			"byteLength":1776,
			"byteOffset":76988,
			"target":34962
		},
		{
			"buffer":0,
			"byteLength":1184,
			"byteOffset":78764,
			"target":34962
		},
		{
			"buffer":0,
			"byteLength":552,
			"byteOffset":79948,
			"target":34963
		},
		{
			"buffer":0,
			"byteLength":960,
			"byteOffset":80500,
			"target":34962
		},
		{
			"buffer":0,
			"byteLength":960,
			"byteOffset":81460,
			"target":34962
		},
		{
			"buffer":0,
			"byteLength":640,
			"byteOffset":82420,
			"target":34962
		},
		{
			"buffer":0,
			"byteLength":240,
			"byteOffset":83060,
			"target":34963
		},
		{
			"buffer":0,
			"byteLength":1080,
			"byteOffset":83300,
			"target":34962
		},
		{
			"buffer":0,
			"byteLength":1080,
			"byteOffset":84380,
			"target":34962
		},
		{
			"buffer":0,
			"byteLength":720,
			"byteOffset":85460,
			"target":34962
		},
		{
			"buffer":0,
			"byteLength":300,
			"byteOffset":86180,
			"target":34963
		},
		{
			"buffer":0,
			"byteLength":1968,
			"byteOffset":86480,
			"target":34962
		},
		{
			"buffer":0,
			"byteLength":1968,
			"byteOffset":88448,
			"target":34962
		},
		{
			"buffer":0,
			"byteLength":1312,
			"byteOffset":90416,
			"target":34962
		},
		{
			"buffer":0,
			"byteLength":600,
			"byteOffset":91728,
			"target":34963
		},
		{
			"buffer":0,
			"byteLength":288,
			"byteOffset":92328,
			"target":34962
		},
		{
			"buffer":0,
			"byteLength":288,
			"byteOffset":92616,
			"target":34962
		},
		{
			"buffer":0,
			"byteLength":192,
			"byteOffset":92904,
			"target":34962
		},
		{
			"buffer":0,
			"byteLength":72,
			"byteOffset":93096,
			"target":34963
		}
	],
	"samplers":[
		{
			"magFilter":9729,
			"minFilter":9987
		}
	],
	"buffers":[
		{
			"byteLength":93168,
			"uri":"data:application/octet-stream;base64,"
		}
	]
}
