{
	"asset":{
		"generator":"Khronos glTF Blender I/O v4.2.57",
		"version":"2.0"
	},
	"extensionsUsed":[
		"KHR_materials_specular",
		"KHR_materials_variants"
	],
	"extensionsRequired":[
		"KHR_materials_variants"
	],
	"extensions":{
		"KHR_materials_variants":{
			"variants":[
				{
					"name":"base"
				},
				{
					"name":"bill_hibi1"
				},
				{
					"name":"bill_hibi2"
				}
			]
		}
	},
	"scene":0,
	"scenes":[
		{
			"name":"Scene",
			"nodes":[
				0
			]
		}
	],
	"nodes":[
		{
			"mesh":0,
			"name":"bill_1",
			"rotation":[
				0.7071068286895752,
				0,
				0,
				0.7071068286895752
			],
			"scale":[
				0.009999999776482582,
				0.009999999776482582,
				0.009999999776482582
			]
		}
	],
	"materials":[
		{
			"alphaMode":"BLEND",
			"doubleSided":true,
			"extensions":{
				"KHR_materials_specular":{
					"specularColorFactor":[
						2.0,
						2.0,
						2.0
					]
				}
			},
			"name":"base",
			"pbrMetallicRoughness":{
				"baseColorTexture":{
					"index":0
				},
				"metallicFactor":0,
				"roughnessFactor":0.5527864098548889
			}
		},
		{
			"doubleSided":true,
			"name":"bill_hibi1",
			"pbrMetallicRoughness":{
				"baseColorTexture":{
					"index":1
				},
				"metallicFactor":0,
				"roughnessFactor":0.5
			}
		},
		{
			"doubleSided":true,
			"name":"bill_hibi2",
			"pbrMetallicRoughness":{
				"baseColorTexture":{
					"index":2
				},
				"metallicFactor":0,
				"roughnessFactor":0.5
			}
		}
	],
	"meshes":[
		{
			"name":"Mesh.001",
			"primitives":[
				{
					"attributes":{
						"POSITION":0,
						"NORMAL":1,
						"TEXCOORD_0":2
					},
					"extensions":{
						"KHR_materials_variants":{
							"mappings":[
								{
									"material":0,
									"variants":[
										0
									]
								},
								{
									"material":1,
									"variants":[
										1
									]
								},
								{
									"material":2,
									"variants":[
										2
									]
								}
							]
						}
					},
					"indices":3,
					"material":0
				}
			]
		}
	],
	"textures":[
		{
			"sampler":0,
			"source":0
		},
		{
			"sampler":0,
			"source":1
		},
		{
			"sampler":0,
			"source":2
		}
	],
	"images":[
		{
			"mimeType":"image/png",
			"name":"bill1",
			"uri":"bill1.png"
		},
		{
			"mimeType":"image/png",
			"name":"bill_hibi1",
			"uri":"bill_hibi1.png"
		},
		{
			"mimeType":"image/png",
			"name":"bill_hibi2",
			"uri":"bill_hibi2.png"
		}
	],
	"accessors":[
		{
			"bufferView":0,
			"componentType":5126,
			"count":315,
			"max":[
				91.38616943359375,
				79.58485412597656,
				8.344650268554688e-07
			],
			"min":[
				-91.38607788085938,
				-79.58485412597656,
				-315.1340637207031
			],
			"type":"VEC3"
		},
		{
			"bufferView":1,
			"componentType":5126,
			"count":315,
			"type":"VEC3"
		},
		{
			"bufferView":2,
			"componentType":5126,
			"count":315,
			"type":"VEC2"
		},
		{
			"bufferView":3,
			"componentType":5123,
			"count":768,
			"type":"SCALAR"
		}
	],
	"bufferViews":[
		{
			"buffer":0,
			"byteLength":3780,
			"byteOffset":0,
			"target":34962
		},
		{
			"buffer":0,
			"byteLength":3780,
			"byteOffset":3780,
			"target":34962
		},
		{
			"buffer":0,
			"byteLength":2520,
			"byteOffset":7560,
			"target":34962
		},
		{
			"buffer":0,
			"byteLength":1536,
			"byteOffset":10080,
			"target":34963
		}
	],
	"samplers":[
		{
			"magFilter":9729,
			"minFilter":9987
		}
	],
	"buffers":[
		{
			"byteLength":11616,
			"uri":"build_materials.bin"
		}
	]
}
